:FULLY-SPECIFIED
:FORCE-ALL-JOINTS-BE-3DOF
:DEGREES
194
root 8.301 16.5814 -8.45885 7.278 4.23105 -4.00705
lfemur -34.5253 2.65637 -14.9226
ltibia 32.8744 -0 0
lfoot -10.7521 12.7476 0.0476522
ltoes -17.5046 0 0
rfemur -5.3234 4.11978 30.0032
rtibia 14.9901 -0 0
rfoot -18.4202 4.06038 -0.0810967
rtoes -9.96559 0 0
lowerback -5.59691 1.16252 2.00958
upperback -0.759462 1.3386 3.59671
thorax 2.33367 0.673149 2.72698
lowerneck -16.7956 -6.9233 -14.5798
upperneck 14.3568 -8.69625 15.1146
head 8.57452 -3.55618 6.44427
lclavicle 1.72473e-14 1.00626e-14 2.65723e-30
lhumerus -49.2917 -10.7846 96.8915
lradius 27.4866 -0 0
lwrist 8.984 0 0
lhand -9.35892 -22.5747 0.109421
lfingers 7.12502 -0 0
lthumb 16.5955 6.66117 0.0835061
rclavicle 1.72473e-14 1.00626e-14 2.65723e-30
rhumerus -37.1932 10.9868 -80.7027
rradius 48.8377 -0 0
rwrist -25.4514 0 0
rhand -32.2307 -29.0287 0.00632107
rfingers 7.12502 -0 0
rthumb -5.47127 -58.9288 0.00547998
195
root 8.30427 16.5766 -8.36799 7.27138 4.00371 -4.06634
lfemur -35.3447 2.43038 -14.9775
ltibia 31.8035 -0 0
lfoot -11.2595 12.6407 0.0488377
ltoes -17.5493 0 0
rfemur -4.56945 4.24298 30.1105
rtibia 14.5212 -0 0
rfoot -18.5552 4.10587 -0.0726512
rtoes -9.854 0 0
lowerback -5.65327 1.25337 2.04431
upperback -0.734974 1.45456 3.58802
thorax 2.38701 0.731133 2.70518
lowerneck -16.7422 -6.90057 -14.5711
upperneck 14.3931 -8.67686 15.1087
head 8.57365 -3.54907 6.44566
lclavicle 1.84891e-14 9.34757e-15 2.44175e-30
lhumerus -49.3343 -10.7623 96.8563
lradius 27.5575 -0 0
lwrist 9.11581 0 0
lhand -9.69805 -22.7392 0.100842
lfingers 7.12502 -0 0
lthumb 16.2695 6.52994 0.0769971
rclavicle 1.84891e-14 9.34757e-15 2.44175e-30
rhumerus -36.9614 11.011 -80.6977
rradius 49.2841 -0 0
rwrist -25.6579 0 0
rhand -32.3621 -29.071 0.00450318
rfingers 7.12502 -0 0
rthumb -5.59815 -58.9688 0.00379072
196
root 8.30656 16.5723 -8.2928 7.26711 3.77766 -4.12158
lfemur -36.1389 2.21735 -15.0335
ltibia 30.7786 -0 0
lfoot -11.7463 12.5323 0.0488873
ltoes -17.5803 0 0
rfemur -3.83249 4.35753 30.2082
rtibia 14.081 -0 0
rfoot -18.6654 4.1501 -0.0642213
rtoes -9.75048 0 0
lowerback -5.70808 1.34149 2.0757
upperback -0.713038 1.56722 3.57839
thorax 2.43694 0.787482 2.684
lowerneck -16.6919 -6.87793 -14.5621
upperneck 14.4304 -8.65724 15.1027
head 8.5736 -3.54174 6.44697
lclavicle 1.96583e-14 8.64768e-15 2.21408e-30
lhumerus -49.3723 -10.7368 96.816
lradius 27.6205 -0 0
lwrist 9.2312 0 0
lhand -10.0232 -22.8976 0.0915859
lfingers 7.12502 -0 0
lthumb 15.9569 6.40352 0.0699648
rclavicle 1.96583e-14 8.64768e-15 2.21408e-30
rhumerus -36.7451 11.0328 -80.6974
rradius 49.7081 -0 0
rwrist -25.8542 0 0
rhand -32.4864 -29.1072 0.00279341
rfingers 7.12502 -0 0
rthumb -5.71821 -59.0027 0.0022074
197
root 8.30778 16.5685 -8.23419 7.26539 3.55339 -4.17268
lfemur -36.9061 2.01882 -15.0909
ltibia 29.8056 -0 0
lfoot -12.2099 12.4229 0.047823
ltoes -17.5968 0 0
rfemur -3.11424 4.46254 30.2956
rtibia 13.672 -0 0
rfoot -18.7486 4.19338 -0.0558898
rtoes -9.65548 0 0
lowerback -5.76104 1.42665 2.1037
upperback -0.693862 1.67628 3.56781
thorax 2.48306 0.842052 2.66344
lowerneck -16.645 -6.85546 -14.5531
upperneck 14.4683 -8.63746 15.0965
head 8.57439 -3.53419 6.44824
lclavicle 2.07495e-14 7.96609e-15 1.97727e-30
lhumerus -49.4059 -10.7077 96.7704
lradius 27.6746 -0 0
lwrist 9.32875 0 0
lhand -10.3327 -23.0491 0.0818086
lfingers 7.12502 -0 0
lthumb 15.6594 6.28253 0.062528
rclavicle 2.07495e-14 7.96609e-15 1.97727e-30
rhumerus -36.5457 11.0519 -80.702
rradius 50.1075 -0 0
rwrist -26.0394 0 0
rhand -32.603 -29.1367 0.00123322
rfingers 7.12502 -0 0
rthumb -5.8308 -59.0302 0.000768835
198
root 8.30783 16.5652 -8.19309 7.26639 3.33136 -4.21953
lfemur -37.6446 1.83633 -15.15
ltibia 28.8905 -0 0
lfoot -12.648 12.313 0.0456852
ltoes -17.5983 0 0
rfemur -2.41643 4.55715 30.3722
rtibia 13.2967 -0 0
rfoot -18.8029 4.23603 -0.0477404
rtoes -9.56943 0 0
lowerback -5.81186 1.50861 2.12826
upperback -0.677653 1.78146 3.55624
thorax 2.52499 0.894699 2.6435
lowerneck -16.6019 -6.83325 -14.544
upperneck 14.5068 -8.61762 15.0903
head 8.576 -3.52646 6.44948
lclavicle 2.17569e-14 7.30598e-15 1.73454e-30
lhumerus -49.4351 -10.6743 96.7191
lradius 27.7189 -0 0
lwrist 9.40706 0 0
lhand -10.625 -23.1929 0.0716775
lfingers 7.12502 -0 0
lthumb 15.3784 6.16759 0.0548142
rclavicle 2.17569e-14 7.30598e-15 1.73454e-30
rhumerus -36.3644 11.0684 -80.7118
rradius 50.4805 -0 0
rwrist -26.2126 0 0
rhand -32.7113 -29.1593 -0.000136397
rfingers 7.12502 -0 0
rthumb -5.93529 -59.0509 -0.000486617
